<svg id="Слой_1" data-name="Слой 1" xmlns="http://www.w3.org/2000/svg" xmlns:xlink="http://www.w3.org/1999/xlink" viewBox="0 0 142.95 144.94"><defs><style>.cls-1{fill:none;clip-rule:evenodd;}.cls-10,.cls-100,.cls-101,.cls-102,.cls-103,.cls-104,.cls-105,.cls-106,.cls-107,.cls-108,.cls-109,.cls-11,.cls-110,.cls-111,.cls-112,.cls-113,.cls-114,.cls-115,.cls-116,.cls-117,.cls-118,.cls-119,.cls-12,.cls-120,.cls-121,.cls-122,.cls-123,.cls-124,.cls-125,.cls-126,.cls-127,.cls-128,.cls-129,.cls-13,.cls-130,.cls-131,.cls-132,.cls-133,.cls-134,.cls-135,.cls-136,.cls-137,.cls-138,.cls-139,.cls-14,.cls-140,.cls-141,.cls-142,.cls-143,.cls-144,.cls-145,.cls-146,.cls-147,.cls-148,.cls-149,.cls-15,.cls-150,.cls-151,.cls-152,.cls-153,.cls-154,.cls-155,.cls-156,.cls-157,.cls-158,.cls-159,.cls-16,.cls-160,.cls-161,.cls-162,.cls-163,.cls-164,.cls-165,.cls-166,.cls-167,.cls-168,.cls-169,.cls-17,.cls-170,.cls-171,.cls-172,.cls-173,.cls-174,.cls-175,.cls-176,.cls-177,.cls-178,.cls-179,.cls-18,.cls-180,.cls-181,.cls-182,.cls-183,.cls-184,.cls-185,.cls-186,.cls-187,.cls-188,.cls-189,.cls-19,.cls-190,.cls-191,.cls-192,.cls-193,.cls-194,.cls-195,.cls-196,.cls-197,.cls-198,.cls-199,.cls-2,.cls-20,.cls-200,.cls-201,.cls-202,.cls-203,.cls-21,.cls-22,.cls-23,.cls-24,.cls-25,.cls-26,.cls-27,.cls-28,.cls-29,.cls-30,.cls-31,.cls-32,.cls-33,.cls-34,.cls-35,.cls-36,.cls-37,.cls-38,.cls-39,.cls-4,.cls-40,.cls-41,.cls-42,.cls-43,.cls-44,.cls-45,.cls-46,.cls-47,.cls-48,.cls-49,.cls-5,.cls-50,.cls-51,.cls-52,.cls-53,.cls-54,.cls-55,.cls-56,.cls-57,.cls-58,.cls-59,.cls-6,.cls-60,.cls-61,.cls-62,.cls-63,.cls-64,.cls-65,.cls-66,.cls-67,.cls-68,.cls-69,.cls-7,.cls-70,.cls-71,.cls-72,.cls-73,.cls-74,.cls-75,.cls-76,.cls-77,.cls-78,.cls-79,.cls-8,.cls-80,.cls-81,.cls-82,.cls-83,.cls-84,.cls-85,.cls-86,.cls-87,.cls-88,.cls-89,.cls-9,.cls-90,.cls-91,.cls-92,.cls-93,.cls-94,.cls-95,.cls-96,.cls-97,.cls-98,.cls-99{fill-rule:evenodd;}.cls-3{clip-path:url(#clip-path);}.cls-4{fill:#1e7040;}.cls-5{fill:#1f7040;}.cls-6{fill:#1f7140;}.cls-7{fill:#207140;}.cls-8{fill:#217241;}.cls-9{fill:#227241;}.cls-10{fill:#227341;}.cls-11{fill:#237341;}.cls-12{fill:#247441;}.cls-13{fill:#257441;}.cls-14{fill:#267541;}.cls-15{fill:#267542;}.cls-16{fill:#277542;}.cls-17{fill:#277642;}.cls-18{fill:#287642;}.cls-19{fill:#297642;}.cls-20{fill:#297742;}.cls-21{fill:#2a7742;}.cls-22{fill:#2a7842;}.cls-23{fill:#2b7842;}.cls-24{fill:#2c7943;}.cls-25{fill:#2d7943;}.cls-26{fill:#2e7a43;}.cls-27{fill:#2f7a43;}.cls-28{fill:#307b43;}.cls-29{fill:#317c43;}.cls-30{fill:#317c44;}.cls-31{fill:#327c44;}.cls-32{fill:#327d44;}.cls-33{fill:#337d44;}.cls-34{fill:#347d44;}.cls-35{fill:#347e44;}.cls-36{fill:#357e44;}.cls-37{fill:#367f44;}.cls-38{fill:#377f45;}.cls-39{fill:#378045;}.cls-40{fill:#388045;}.cls-41{fill:#398145;}.cls-42{fill:#3a8145;}.cls-43{fill:#3b8245;}.cls-44{fill:#3c8245;}.cls-45{fill:#3c8346;}.cls-46{fill:#3d8346;}.cls-47{fill:#3e8346;}.cls-48{fill:#3e8446;}.cls-49{fill:#3f8446;}.cls-50{fill:#3f8546;}.cls-51{fill:#408546;}.cls-52{fill:#418546;}.cls-53{fill:#418646;}.cls-54{fill:#428647;}.cls-55{fill:#438747;}.cls-56{fill:#448747;}.cls-57{fill:#458847;}.cls-58{fill:#468947;}.cls-59{fill:#478948;}.cls-60{fill:#488a48;}.cls-61{fill:#498a48;}.cls-62{fill:#498b48;}.cls-63{fill:#4a8b48;}.cls-64{fill:#4b8c48;}.cls-65{fill:#4c8c48;}.cls-66{fill:#4d8d49;}.cls-67{fill:#4e8e49;}.cls-68{fill:#4f8e49;}.cls-69{fill:#508f49;}.cls-70{fill:#518f49;}.cls-71{fill:#519049;}.cls-72{fill:#52904a;}.cls-73{fill:#53904a;}.cls-74{fill:#53914a;}.cls-75{fill:#54914a;}.cls-76{fill:#54924a;}.cls-77{fill:#55924a;}.cls-78{fill:#56924a;}.cls-79{fill:#56934a;}.cls-80{fill:#57934a;}.cls-81{fill:#57934b;}.cls-82{fill:#58944b;}.cls-83{fill:#59944b;}.cls-84{fill:#5a954b;}.cls-85{fill:#5b954b;}.cls-86{fill:#5b964b;}.cls-87{fill:#5c964b;}.cls-88{fill:#5d974c;}.cls-89{fill:#5e974c;}.cls-90{fill:#5e984c;}.cls-91{fill:#5f984c;}.cls-92{fill:#60984c;}.cls-93{fill:#60994c;}.cls-94{fill:#61994c;}.cls-95{fill:#629a4c;}.cls-96{fill:#629a4d;}.cls-97{fill:#639b4d;}.cls-98{fill:#649b4d;}.cls-99{fill:#659c4d;}.cls-100{fill:#669c4d;}.cls-101{fill:#679d4d;}.cls-102{fill:#689d4e;}.cls-103{fill:#689e4e;}.cls-104{fill:#699e4e;}.cls-105{fill:#699f4e;}.cls-106{fill:#6a9f4e;}.cls-107{fill:#6b9f4e;}.cls-108{fill:#6ba04e;}.cls-109{fill:#6ca04e;}.cls-110{fill:#6da14f;}.cls-111{fill:#6ea14f;}.cls-112{fill:#6fa24f;}.cls-113{fill:#70a24f;}.cls-114{fill:#70a34f;}.cls-115{fill:#71a34f;}.cls-116{fill:#72a44f;}.cls-117{fill:#73a450;}.cls-118{fill:#73a550;}.cls-119{fill:#74a550;}.cls-120{fill:#75a550;}.cls-121{fill:#75a650;}.cls-122{fill:#76a650;}.cls-123{fill:#77a750;}.cls-124{fill:#78a750;}.cls-125{fill:#78a851;}.cls-126{fill:#79a851;}.cls-127{fill:#7aa951;}.cls-128{fill:#7baa51;}.cls-129{fill:#7caa51;}.cls-130{fill:#7dab52;}.cls-131{fill:#7eab52;}.cls-132{fill:#7fac52;}.cls-133{fill:#80ac52;}.cls-134{fill:#81ad52;}.cls-135{fill:#82ae52;}.cls-136{fill:#83ae53;}.cls-137{fill:#84af53;}.cls-138{fill:#85af53;}.cls-139{fill:#86b053;}.cls-140{fill:#87b153;}.cls-141{fill:#88b153;}.cls-142{fill:#89b254;}.cls-143{fill:#8ab254;}.cls-144{fill:#8bb354;}.cls-145{fill:#8cb454;}.cls-146{fill:#8db454;}.cls-147{fill:#8db554;}.cls-148{fill:#8eb555;}.cls-149{fill:#8fb655;}.cls-150{fill:#90b655;}.cls-151{fill:#91b755;}.cls-152{fill:#92b855;}.cls-153{fill:#93b856;}.cls-154{fill:#94b956;}.cls-155{fill:#95b956;}.cls-156{fill:#96ba56;}.cls-157{fill:#97bb56;}.cls-158{fill:#98bb56;}.cls-159{fill:#99bc57;}.cls-160{fill:#9abc57;}.cls-161{fill:#9bbd57;}.cls-162{fill:#9cbe57;}.cls-163{fill:#9dbe57;}.cls-164{fill:#9ebf57;}.cls-165{fill:#9fbf58;}.cls-166{fill:#a0c058;}.cls-167{fill:#a1c058;}.cls-168{fill:#a2c158;}.cls-169{fill:#a2c258;}.cls-170{fill:#a3c259;}.cls-171{fill:#a4c359;}.cls-172{fill:#a5c359;}.cls-173{fill:#a6c459;}.cls-174{fill:#a7c559;}.cls-175{fill:#a8c559;}.cls-176{fill:#a9c65a;}.cls-177{fill:#aac65a;}.cls-178{fill:#abc75a;}.cls-179{fill:#acc85a;}.cls-180{fill:#adc85a;}.cls-181{fill:#aec95a;}.cls-182{fill:#afc95b;}.cls-183{fill:#b0ca5b;}.cls-184{fill:#b1ca5b;}.cls-185{fill:#b2cb5b;}.cls-186{fill:#b3cc5b;}.cls-187{fill:#b4cc5c;}.cls-188{fill:#b5cd5c;}.cls-189{fill:#b6cd5c;}.cls-190{fill:#b7ce5c;}.cls-191{fill:#b7cf5c;}.cls-192{fill:#b8cf5c;}.cls-193{fill:#b9d05d;}.cls-194{fill:#bad05d;}.cls-195{fill:#bbd15d;}.cls-196{fill:#bcd25d;}.cls-197{fill:#bdd25d;}.cls-198{fill:#bed35d;}.cls-199{fill:#bfd35e;}.cls-200{fill:#c0d45e;}.cls-201{fill:#c1d45e;}.cls-202{fill:#c2d55e;}.cls-203{fill:#c3d65e;}</style><clipPath id="clip-path" transform="translate(-135.38 -349.9)"><polygon class="cls-1" points="152.73 400.86 208.24 369.06 262.04 400.75 261.81 413 208.18 381.39 163.39 407.07 163.36 431.05 206.68 456.62 217.56 450.13 217.82 425.98 239.59 439.02 239.59 451.06 206.68 469.72 152.68 437.94 152.73 400.86"/></clipPath></defs><title>mini_logo_stark_clean_</title><polygon class="cls-2" points="126.2 76.05 125.52 112.76 71.38 144.94 17.23 113.07 17.26 100.72 71.35 132.55 114.97 106.64 115.4 82.6 71.63 56.84 60.86 63.81 61.12 88.92 38.64 75.26 39.43 62.59 72.62 44.53 126.2 76.05"/><g class="cls-3"><polygon class="cls-4" points="50.83 137.42 50.17 136.46 142.3 73.87 142.95 74.83 50.83 137.42"/><polygon class="cls-5" points="50.29 136.6 49.95 136.15 142.1 73.56 142.41 74.01 50.29 136.6"/><polygon class="cls-6" points="50.06 136.29 49.75 135.81 141.87 73.22 142.19 73.7 50.06 136.29"/><polygon class="cls-7" points="49.86 135.98 49.52 135.5 141.65 72.91 141.99 73.39 49.86 135.98"/><polygon class="cls-7" points="49.63 135.67 49.32 135.18 141.45 72.59 141.76 73.08 49.63 135.67"/><polygon class="cls-8" points="49.41 135.35 49.1 134.87 141.22 72.28 141.56 72.77 49.41 135.35"/><polygon class="cls-9" points="49.21 135.01 48.87 134.56 141.02 71.97 141.34 72.45 49.21 135.01"/><polygon class="cls-10" points="48.98 134.7 48.67 134.22 140.8 71.66 141.11 72.11 48.98 134.7"/><polygon class="cls-11" points="48.78 134.39 48.44 133.91 140.57 71.32 140.91 71.8 48.78 134.39"/><polygon class="cls-11" points="48.56 134.08 48.25 133.6 140.37 71.01 140.68 71.49 48.56 134.08"/><polygon class="cls-12" points="48.33 133.77 48.02 133.28 140.15 70.7 140.49 71.18 48.33 133.77"/><polygon class="cls-12" points="48.13 133.46 47.79 132.97 139.95 70.38 140.26 70.87 48.13 133.46"/><polygon class="cls-13" points="47.91 133.12 47.59 132.66 139.72 70.07 140.03 70.53 47.91 133.12"/><polygon class="cls-14" points="47.71 132.8 47.37 132.32 139.49 69.73 139.83 70.21 47.71 132.8"/><polygon class="cls-15" points="47.48 132.49 47.17 132.01 139.29 69.42 139.61 69.9 47.48 132.49"/><polygon class="cls-16" points="47.25 132.18 46.94 131.7 139.07 69.11 139.41 69.59 47.25 132.18"/><polygon class="cls-17" points="47.05 131.87 46.72 131.39 138.87 68.8 139.18 69.28 47.05 131.87"/><polygon class="cls-18" points="46.83 131.53 46.52 131.07 138.64 68.48 138.95 68.97 46.83 131.53"/><polygon class="cls-19" points="46.63 131.22 46.29 130.73 138.42 68.17 138.76 68.63 46.63 131.22"/><polygon class="cls-20" points="46.4 130.9 46.09 130.42 138.22 67.83 138.53 68.31 46.4 130.9"/><polygon class="cls-21" points="46.18 130.59 45.87 130.11 137.99 67.52 138.33 68 46.18 130.59"/><polygon class="cls-22" points="45.98 130.28 45.64 129.8 137.79 67.21 138.1 67.69 45.98 130.28"/><polygon class="cls-23" points="45.75 129.94 45.44 129.49 137.56 66.9 137.88 67.38 45.75 129.94"/><polygon class="cls-23" points="45.55 129.63 45.21 129.18 137.34 66.59 137.68 67.04 45.55 129.63"/><polygon class="cls-24" points="45.33 129.32 45.01 128.84 137.14 66.25 137.45 66.73 45.33 129.32"/><polygon class="cls-25" points="45.1 129 44.79 128.52 136.91 65.93 137.25 66.42 45.1 129"/><polygon class="cls-25" points="44.9 128.69 44.56 128.21 136.72 65.62 137.03 66.1 44.9 128.69"/><polygon class="cls-26" points="44.67 128.38 44.36 127.9 136.49 65.31 136.8 65.79 44.67 128.38"/><polygon class="cls-26" points="44.48 128.04 44.13 127.59 136.26 65 136.6 65.48 44.48 128.04"/><polygon class="cls-27" points="44.25 127.73 43.94 127.25 136.06 64.69 136.38 65.14 44.25 127.73"/><polygon class="cls-28" points="44.02 127.42 43.71 126.94 135.84 64.35 136.18 64.83 44.02 127.42"/><polygon class="cls-28" points="43.82 127.11 43.48 126.62 135.64 64.03 135.95 64.52 43.82 127.11"/><polygon class="cls-29" points="43.6 126.79 43.28 126.31 135.41 63.72 135.72 64.2 43.6 126.79"/><polygon class="cls-30" points="43.4 126.45 43.06 126 135.18 63.41 135.52 63.89 43.4 126.45"/><polygon class="cls-31" points="43.17 126.14 42.86 125.69 134.99 63.1 135.3 63.55 43.17 126.14"/><polygon class="cls-32" points="42.95 125.83 42.63 125.35 134.76 62.76 135.1 63.24 42.95 125.83"/><polygon class="cls-33" points="42.75 125.52 42.41 125.04 134.56 62.45 134.87 62.93 42.75 125.52"/><polygon class="cls-34" points="42.52 125.21 42.21 124.72 134.33 62.13 134.65 62.62 42.52 125.21"/><polygon class="cls-35" points="42.32 124.89 41.98 124.41 134.11 61.82 134.45 62.31 42.32 124.89"/><polygon class="cls-36" points="42.09 124.55 41.78 124.1 133.91 61.51 134.22 61.99 42.09 124.55"/><polygon class="cls-36" points="41.87 124.24 41.56 123.76 133.68 61.2 134.02 61.65 41.87 124.24"/><polygon class="cls-37" points="41.67 123.93 41.33 123.45 133.48 60.86 133.79 61.34 41.67 123.93"/><polygon class="cls-38" points="41.44 123.62 41.13 123.14 133.26 60.55 133.6 61.03 41.44 123.62"/><polygon class="cls-39" points="41.24 123.31 40.9 122.83 133.06 60.24 133.37 60.72 41.24 123.31"/><polygon class="cls-40" points="41.02 122.97 40.71 122.51 132.83 59.92 133.14 60.41 41.02 122.97"/><polygon class="cls-40" points="40.79 122.66 40.48 122.2 132.6 59.61 132.94 60.07 40.79 122.66"/><polygon class="cls-41" points="40.59 122.34 40.25 121.86 132.41 59.27 132.72 59.75 40.59 122.34"/><polygon class="cls-41" points="40.37 122.03 40.05 121.55 132.18 58.96 132.52 59.44 40.37 122.03"/><polygon class="cls-42" points="40.17 121.72 39.83 121.24 131.98 58.65 132.29 59.13 40.17 121.72"/><polygon class="cls-43" points="39.94 121.41 39.63 120.93 131.75 58.34 132.07 58.82 39.94 121.41"/><polygon class="cls-43" points="39.71 121.07 39.4 120.61 131.53 58.02 131.87 58.51 39.71 121.07"/><polygon class="cls-44" points="39.52 120.76 39.2 120.27 131.33 57.71 131.64 58.17 39.52 120.76"/><polygon class="cls-45" points="39.29 120.44 38.98 119.96 131.1 57.37 131.44 57.85 39.29 120.44"/><polygon class="cls-46" points="39.09 120.13 38.75 119.65 130.9 57.06 131.22 57.54 39.09 120.13"/><polygon class="cls-47" points="38.86 119.82 38.55 119.34 130.68 56.75 130.99 57.23 38.86 119.82"/><polygon class="cls-48" points="38.66 119.48 38.32 119.03 130.45 56.44 130.79 56.92 38.66 119.48"/><polygon class="cls-49" points="38.44 119.17 38.13 118.72 130.25 56.13 130.56 56.58 38.44 119.17"/><polygon class="cls-50" points="38.21 118.86 37.9 118.38 130.03 55.79 130.37 56.27 38.21 118.86"/><polygon class="cls-51" points="38.01 118.55 37.67 118.06 129.83 55.47 130.14 55.96 38.01 118.55"/><polygon class="cls-52" points="37.79 118.23 37.47 117.75 129.6 55.16 129.91 55.64 37.79 118.23"/><polygon class="cls-53" points="37.59 117.92 37.25 117.44 129.37 54.85 129.71 55.33 37.59 117.92"/><polygon class="cls-54" points="37.36 117.58 37.05 117.13 129.18 54.54 129.49 55.02 37.36 117.58"/><polygon class="cls-54" points="37.13 117.27 36.82 116.79 128.95 54.23 129.29 54.68 37.13 117.27"/><polygon class="cls-55" points="36.94 116.96 36.59 116.48 128.75 53.89 129.06 54.37 36.94 116.96"/><polygon class="cls-55" points="36.71 116.65 36.4 116.16 128.52 53.58 128.84 54.06 36.71 116.65"/><polygon class="cls-56" points="36.51 116.33 36.17 115.85 128.3 53.26 128.64 53.74 36.51 116.33"/><polygon class="cls-57" points="36.28 115.99 35.97 115.54 128.1 52.95 128.41 53.43 36.28 115.99"/><polygon class="cls-57" points="36.06 115.68 35.74 115.23 127.87 52.64 128.21 53.09 36.06 115.68"/><polygon class="cls-58" points="35.86 115.37 35.52 114.89 127.67 52.3 127.98 52.78 35.86 115.37"/><polygon class="cls-58" points="35.63 115.06 35.32 114.58 127.45 51.99 127.76 52.47 35.63 115.06"/><polygon class="cls-59" points="35.43 114.75 35.09 114.27 127.22 51.68 127.56 52.16 35.43 114.75"/><polygon class="cls-60" points="35.21 114.44 34.89 113.95 127.02 51.36 127.33 51.85 35.21 114.44"/><polygon class="cls-60" points="34.98 114.09 34.67 113.64 126.79 51.05 127.13 51.51 34.98 114.09"/><polygon class="cls-61" points="34.78 113.78 34.44 113.3 126.59 50.74 126.91 51.19 34.78 113.78"/><polygon class="cls-62" points="34.55 113.47 34.24 112.99 126.37 50.4 126.68 50.88 34.55 113.47"/><polygon class="cls-63" points="34.36 113.16 34.02 112.68 126.14 50.09 126.48 50.57 34.36 113.16"/><polygon class="cls-63" points="34.13 112.85 33.82 112.36 125.94 49.78 126.25 50.26 34.13 112.85"/><polygon class="cls-64" points="33.9 112.51 33.59 112.05 125.72 49.47 126.06 49.95 33.9 112.51"/><polygon class="cls-65" points="33.7 112.19 33.36 111.74 125.52 49.15 125.83 49.61 33.7 112.19"/><polygon class="cls-65" points="33.48 111.88 33.16 111.4 125.29 48.81 125.6 49.29 33.48 111.88"/><polygon class="cls-66" points="33.28 111.57 32.94 111.09 125.06 48.5 125.41 48.98 33.28 111.57"/><polygon class="cls-66" points="33.05 111.26 32.74 110.78 124.87 48.19 125.18 48.67 33.05 111.26"/><polygon class="cls-67" points="32.83 110.95 32.51 110.47 124.64 47.88 124.98 48.36 32.83 110.95"/><polygon class="cls-68" points="32.63 110.61 32.29 110.15 124.44 47.56 124.75 48.02 32.63 110.61"/><polygon class="cls-68" points="32.4 110.3 32.09 109.81 124.21 47.25 124.53 47.71 32.4 110.3"/><polygon class="cls-69" points="32.2 109.98 31.86 109.5 123.99 46.91 124.33 47.4 32.2 109.98"/><polygon class="cls-69" points="31.98 109.67 31.66 109.19 123.79 46.6 124.1 47.08 31.98 109.67"/><polygon class="cls-70" points="31.75 109.36 31.44 108.88 123.56 46.29 123.9 46.77 31.75 109.36"/><polygon class="cls-71" points="31.55 109.02 31.21 108.57 123.36 45.98 123.68 46.46 31.55 109.02"/><polygon class="cls-72" points="31.32 108.71 31.01 108.23 123.14 45.67 123.45 46.12 31.32 108.71"/><polygon class="cls-73" points="31.12 108.4 30.78 107.92 122.91 45.33 123.25 45.81 31.12 108.4"/><polygon class="cls-74" points="30.9 108.08 30.59 107.6 122.71 45.01 123.02 45.5 30.9 108.08"/><polygon class="cls-75" points="30.67 107.77 30.36 107.29 122.48 44.7 122.83 45.18 30.67 107.77"/><polygon class="cls-76" points="30.47 107.46 30.13 106.98 122.29 44.39 122.6 44.87 30.47 107.46"/><polygon class="cls-77" points="30.25 107.12 29.93 106.67 122.06 44.08 122.4 44.53 30.25 107.12"/><polygon class="cls-78" points="30.05 106.81 29.71 106.33 121.86 43.77 122.17 44.22 30.05 106.81"/><polygon class="cls-79" points="29.82 106.5 29.51 106.02 121.64 43.43 121.95 43.91 29.82 106.5"/><polygon class="cls-80" points="29.59 106.19 29.28 105.7 121.41 43.12 121.75 43.6 29.59 106.19"/><polygon class="cls-81" points="29.39 105.87 29.05 105.39 121.21 42.8 121.52 43.28 29.39 105.87"/><polygon class="cls-82" points="29.17 105.53 28.86 105.08 120.98 42.49 121.32 42.97 29.17 105.53"/><polygon class="cls-83" points="28.97 105.22 28.63 104.74 120.78 42.18 121.1 42.63 28.97 105.22"/><polygon class="cls-83" points="28.74 104.91 28.43 104.43 120.56 41.84 120.87 42.32 28.74 104.91"/><polygon class="cls-84" points="28.52 104.6 28.2 104.12 120.33 41.53 120.67 42.01 28.52 104.6"/><polygon class="cls-84" points="28.32 104.29 28.01 103.81 120.13 41.22 120.44 41.7 28.32 104.29"/><polygon class="cls-85" points="28.09 103.97 27.78 103.49 119.91 40.9 120.25 41.39 28.09 103.97"/><polygon class="cls-86" points="27.89 103.64 27.55 103.18 119.71 40.59 120.02 41.05 27.89 103.64"/><polygon class="cls-87" points="27.67 103.32 27.35 102.84 119.48 40.28 119.79 40.73 27.67 103.32"/><polygon class="cls-88" points="27.47 103.01 27.13 102.53 119.25 39.94 119.59 40.42 27.47 103.01"/><polygon class="cls-88" points="27.24 102.7 26.93 102.22 119.06 39.63 119.37 40.11 27.24 102.7"/><polygon class="cls-89" points="27.01 102.39 26.7 101.91 118.83 39.32 119.17 39.8 27.01 102.39"/><polygon class="cls-90" points="26.82 102.05 26.48 101.59 118.63 39.01 118.94 39.49 26.82 102.05"/><polygon class="cls-91" points="26.59 101.73 26.28 101.25 118.4 38.69 118.72 39.15 26.59 101.73"/><polygon class="cls-92" points="26.39 101.42 26.05 100.94 118.18 38.35 118.52 38.84 26.39 101.42"/><polygon class="cls-93" points="26.16 101.11 25.85 100.63 117.98 38.04 118.29 38.52 26.16 101.11"/><polygon class="cls-94" points="25.94 100.8 25.63 100.32 117.75 37.73 118.09 38.21 25.94 100.8"/><polygon class="cls-94" points="25.74 100.49 25.4 100.01 117.55 37.42 117.86 37.9 25.74 100.49"/><polygon class="cls-95" points="25.51 100.15 25.2 99.69 117.33 37.11 117.64 37.56 25.51 100.15"/><polygon class="cls-96" points="25.31 99.84 24.97 99.35 117.1 36.79 117.44 37.25 25.31 99.84"/><polygon class="cls-97" points="25.09 99.52 24.77 99.04 116.9 36.45 117.21 36.94 25.09 99.52"/><polygon class="cls-98" points="24.86 99.21 24.55 98.73 116.67 36.14 117.01 36.62 24.86 99.21"/><polygon class="cls-98" points="24.66 98.9 24.32 98.42 116.48 35.83 116.79 36.31 24.66 98.9"/><polygon class="cls-99" points="24.43 98.56 24.12 98.11 116.25 35.52 116.56 36 24.43 98.56"/><polygon class="cls-99" points="24.24 98.25 23.9 97.77 116.02 35.21 116.36 35.66 24.24 98.25"/><polygon class="cls-100" points="24.01 97.94 23.7 97.45 115.82 34.87 116.14 35.35 24.01 97.94"/><polygon class="cls-101" points="23.78 97.63 23.47 97.14 115.6 34.55 115.94 35.04 23.78 97.63"/><polygon class="cls-101" points="23.58 97.31 23.24 96.83 115.4 34.24 115.71 34.72 23.58 97.31"/><polygon class="cls-102" points="23.36 97 23.05 96.52 115.17 33.93 115.48 34.41 23.36 97"/><polygon class="cls-103" points="23.16 96.66 22.82 96.21 114.94 33.62 115.28 34.07 23.16 96.66"/><polygon class="cls-104" points="22.93 96.35 22.62 95.87 114.75 33.31 115.06 33.76 22.93 96.35"/><polygon class="cls-105" points="22.71 96.04 22.39 95.56 114.52 32.97 114.86 33.45 22.71 96.04"/><polygon class="cls-106" points="22.51 95.73 22.17 95.24 114.32 32.66 114.63 33.14 22.51 95.73"/><polygon class="cls-107" points="22.28 95.41 21.97 94.93 114.09 32.34 114.41 32.83 22.28 95.41"/><polygon class="cls-108" points="22.08 95.07 21.74 94.62 113.87 32.03 114.21 32.51 22.08 95.07"/><polygon class="cls-109" points="21.86 94.76 21.54 94.28 113.67 31.72 113.98 32.17 21.86 94.76"/><polygon class="cls-109" points="21.63 94.45 21.32 93.97 113.44 31.38 113.78 31.86 21.63 94.45"/><polygon class="cls-110" points="21.43 94.14 21.09 93.66 113.24 31.07 113.56 31.55 21.43 94.14"/><polygon class="cls-111" points="21.2 93.83 20.89 93.34 113.02 30.76 113.33 31.24 21.2 93.83"/><polygon class="cls-111" points="21 93.52 20.66 93.03 112.79 30.44 113.13 30.93 21 93.52"/><polygon class="cls-112" points="20.78 93.17 20.47 92.72 112.59 30.13 112.9 30.59 20.78 93.17"/><polygon class="cls-112" points="20.55 92.86 20.24 92.38 112.36 29.82 112.71 30.27 20.55 92.86"/><polygon class="cls-113" points="20.35 92.55 20.01 92.07 112.17 29.48 112.48 29.96 20.35 92.55"/><polygon class="cls-114" points="20.13 92.24 19.81 91.76 111.94 29.17 112.25 29.65 20.13 92.24"/><polygon class="cls-115" points="19.93 91.93 19.59 91.45 111.71 28.86 112.05 29.34 19.93 91.93"/><polygon class="cls-116" points="19.7 91.59 19.39 91.13 111.52 28.55 111.83 29.03 19.7 91.59"/><polygon class="cls-116" points="19.47 91.28 19.16 90.79 111.29 28.23 111.63 28.69 19.47 91.28"/><polygon class="cls-117" points="19.28 90.96 18.93 90.48 111.09 27.89 111.4 28.38 19.28 90.96"/><polygon class="cls-118" points="19.05 90.65 18.74 90.17 110.86 27.58 111.2 28.06 19.05 90.65"/><polygon class="cls-119" points="18.85 90.34 18.51 89.86 110.67 27.27 110.98 27.75 18.85 90.34"/><polygon class="cls-120" points="18.62 90.03 18.31 89.55 110.44 26.96 110.75 27.44 18.62 90.03"/><polygon class="cls-121" points="18.4 89.69 18.09 89.23 110.21 26.65 110.55 27.1 18.4 89.69"/><polygon class="cls-122" points="18.2 89.38 17.86 88.89 110.01 26.31 110.32 26.79 18.2 89.38"/><polygon class="cls-122" points="17.97 89.06 17.66 88.58 109.79 25.99 110.13 26.48 17.97 89.06"/><polygon class="cls-123" points="17.77 88.75 17.43 88.27 109.59 25.68 109.9 26.16 17.77 88.75"/><polygon class="cls-124" points="17.55 88.44 17.23 87.96 109.36 25.37 109.67 25.85 17.55 88.44"/><polygon class="cls-125" points="17.32 88.1 17.01 87.65 109.13 25.06 109.47 25.54 17.32 88.1"/><polygon class="cls-126" points="17.12 87.79 16.81 87.31 108.94 24.75 109.25 25.2 17.12 87.79"/><polygon class="cls-126" points="16.89 87.48 16.58 87 108.71 24.41 109.05 24.89 16.89 87.48"/><polygon class="cls-127" points="16.7 87.17 16.36 86.68 108.51 24.09 108.82 24.58 16.7 87.17"/><polygon class="cls-127" points="16.47 86.85 16.16 86.37 108.28 23.78 108.59 24.27 16.47 86.85"/><polygon class="cls-128" points="16.27 86.54 15.93 86.06 108.06 23.47 108.4 23.95 16.27 86.54"/><polygon class="cls-129" points="16.04 86.2 15.73 85.75 107.86 23.16 108.17 23.61 16.04 86.2"/><polygon class="cls-130" points="15.82 85.89 15.51 85.41 107.63 22.82 107.97 23.3 15.82 85.89"/><polygon class="cls-131" points="15.62 85.58 15.28 85.1 107.43 22.51 107.75 22.99 15.62 85.58"/><polygon class="cls-132" points="15.39 85.27 15.08 84.78 107.21 22.2 107.52 22.68 15.39 85.27"/><polygon class="cls-133" points="15.19 84.95 14.85 84.47 106.98 21.88 107.32 22.36 15.19 84.95"/><polygon class="cls-134" points="14.97 84.61 14.65 84.16 106.78 21.57 107.09 22.05 14.97 84.61"/><polygon class="cls-135" points="14.74 84.3 14.43 83.82 106.55 21.26 106.89 21.71 14.74 84.3"/><polygon class="cls-136" points="14.54 83.99 14.2 83.51 106.36 20.92 106.67 21.4 14.54 83.99"/><polygon class="cls-137" points="14.31 83.68 14 83.2 106.13 20.61 106.44 21.09 14.31 83.68"/><polygon class="cls-138" points="14.12 83.37 13.78 82.89 105.9 20.3 106.24 20.78 14.12 83.37"/><polygon class="cls-139" points="13.89 83.03 13.58 82.57 105.7 19.98 106.02 20.47 13.89 83.03"/><polygon class="cls-140" points="13.66 82.72 13.35 82.26 105.48 19.67 105.82 20.13 13.66 82.72"/><polygon class="cls-141" points="13.46 82.4 13.12 81.92 105.28 19.33 105.59 19.81 13.46 82.4"/><polygon class="cls-142" points="13.24 82.09 12.93 81.61 105.05 19.02 105.36 19.5 13.24 82.09"/><polygon class="cls-143" points="13.04 81.78 12.7 81.3 104.83 18.71 105.17 19.19 13.04 81.78"/><polygon class="cls-144" points="12.81 81.47 12.5 80.99 104.63 18.4 104.94 18.88 12.81 81.47"/><polygon class="cls-145" points="12.59 81.13 12.27 80.67 104.4 18.09 104.74 18.57 12.59 81.13"/><polygon class="cls-146" points="12.39 80.82 12.05 80.33 104.2 17.77 104.51 18.23 12.39 80.82"/><polygon class="cls-147" points="12.16 80.5 11.85 80.02 103.97 17.43 104.29 17.91 12.16 80.5"/><polygon class="cls-148" points="11.96 80.19 11.62 79.71 103.75 17.12 104.09 17.6 11.96 80.19"/><polygon class="cls-149" points="11.73 79.88 11.42 79.4 103.55 16.81 103.86 17.29 11.73 79.88"/><polygon class="cls-150" points="11.51 79.54 11.2 79.09 103.32 16.5 103.66 16.98 11.51 79.54"/><polygon class="cls-151" points="11.31 79.23 10.97 78.78 103.12 16.19 103.44 16.64 11.31 79.23"/><polygon class="cls-152" points="11.08 78.92 10.77 78.44 102.9 15.85 103.21 16.33 11.08 78.92"/><polygon class="cls-153" points="10.88 78.61 10.54 78.12 102.67 15.53 103.01 16.02 10.88 78.61"/><polygon class="cls-154" points="10.66 78.29 10.35 77.81 102.47 15.22 102.78 15.7 10.66 78.29"/><polygon class="cls-155" points="10.43 77.98 10.12 77.5 102.25 14.91 102.59 15.39 10.43 77.98"/><polygon class="cls-156" points="10.23 77.64 9.89 77.19 102.05 14.6 102.36 15.08 10.23 77.64"/><polygon class="cls-157" points="10.01 77.33 9.69 76.85 101.82 14.29 102.13 14.74 10.01 77.33"/><polygon class="cls-158" points="9.81 77.02 9.47 76.53 101.59 13.95 101.93 14.43 9.81 77.02"/><polygon class="cls-159" points="9.58 76.71 9.27 76.22 101.39 13.63 101.71 14.12 9.58 76.71"/><polygon class="cls-160" points="9.35 76.39 9.04 75.91 101.17 13.32 101.51 13.8 9.35 76.39"/><polygon class="cls-161" points="9.16 76.05 8.82 75.6 100.97 13.01 101.28 13.49 9.16 76.05"/><polygon class="cls-162" points="8.93 75.74 8.62 75.29 100.74 12.7 101.06 13.15 8.93 75.74"/><polygon class="cls-163" points="8.73 75.43 8.39 74.95 100.52 12.36 100.86 12.84 8.73 75.43"/><polygon class="cls-164" points="8.5 75.12 8.19 74.64 100.32 12.05 100.63 12.53 8.5 75.12"/><polygon class="cls-165" points="8.28 74.81 7.96 74.32 100.09 11.73 100.43 12.22 8.28 74.81"/><polygon class="cls-166" points="8.08 74.49 7.74 74.01 99.89 11.42 100.2 11.91 8.08 74.49"/><polygon class="cls-167" points="7.85 74.15 7.54 73.7 99.67 11.11 100.01 11.59 7.85 74.15"/><polygon class="cls-168" points="7.65 73.84 7.31 73.36 99.47 10.8 99.78 11.25 7.65 73.84"/><polygon class="cls-169" points="7.43 73.53 7.12 73.05 99.24 10.46 99.55 10.94 7.43 73.53"/><polygon class="cls-170" points="7.2 73.22 6.89 72.74 99.01 10.15 99.35 10.63 7.2 73.22"/><polygon class="cls-171" points="7 72.91 6.66 72.42 98.82 9.84 99.13 10.32 7 72.91"/><polygon class="cls-172" points="6.78 72.57 6.46 72.11 98.59 9.52 98.93 10.01 6.78 72.57"/><polygon class="cls-173" points="6.58 72.25 6.24 71.8 98.39 9.21 98.7 9.67 6.58 72.25"/><polygon class="cls-174" points="6.35 71.94 6.04 71.46 98.16 8.87 98.48 9.35 6.35 71.94"/><polygon class="cls-175" points="6.12 71.63 5.81 71.15 97.94 8.56 98.28 9.04 6.12 71.63"/><polygon class="cls-176" points="5.92 71.32 5.58 70.84 97.74 8.25 98.05 8.73 5.92 71.32"/><polygon class="cls-177" points="5.7 71.01 5.39 70.53 97.51 7.94 97.85 8.42 5.7 71.01"/><polygon class="cls-178" points="5.5 70.67 5.16 70.21 97.31 7.63 97.63 8.08 5.5 70.67"/><polygon class="cls-179" points="5.27 70.36 4.96 69.87 97.09 7.31 97.4 7.77 5.27 70.36"/><polygon class="cls-180" points="5.05 70.04 4.73 69.56 96.86 6.97 97.2 7.46 5.05 70.04"/><polygon class="cls-181" points="4.85 69.73 4.54 69.25 96.66 6.66 96.97 7.14 4.85 69.73"/><polygon class="cls-182" points="4.62 69.42 4.31 68.94 96.44 6.35 96.78 6.83 4.62 69.42"/><polygon class="cls-183" points="4.42 69.08 4.08 68.63 96.24 6.04 96.55 6.52 4.42 69.08"/><polygon class="cls-184" points="4.2 68.77 3.88 68.31 96.01 5.73 96.32 6.18 4.2 68.77"/><polygon class="cls-185" points="4 68.46 3.66 67.97 95.78 5.39 96.12 5.87 4 68.46"/><polygon class="cls-186" points="3.77 68.14 3.46 67.66 95.58 5.07 95.9 5.56 3.77 68.14"/><polygon class="cls-187" points="3.54 67.83 3.23 67.35 95.36 4.76 95.7 5.24 3.54 67.83"/><polygon class="cls-188" points="3.35 67.52 3 67.04 95.16 4.45 95.47 4.93 3.35 67.52"/><polygon class="cls-189" points="3.12 67.18 2.81 66.73 94.93 4.14 95.24 4.59 3.12 67.18"/><polygon class="cls-190" points="2.92 66.87 2.58 66.39 94.71 3.83 95.05 4.28 2.92 66.87"/><polygon class="cls-191" points="2.69 66.56 2.38 66.08 94.51 3.49 94.82 3.97 2.69 66.56"/><polygon class="cls-192" points="2.47 66.25 2.15 65.76 94.28 3.17 94.62 3.66 2.47 66.25"/><polygon class="cls-193" points="2.27 65.93 1.93 65.45 94.08 2.86 94.39 3.35 2.27 65.93"/><polygon class="cls-194" points="2.04 65.59 1.73 65.14 93.86 2.55 94.17 3.03 2.04 65.59"/><polygon class="cls-195" points="1.84 65.28 1.5 64.83 93.63 2.24 93.97 2.69 1.84 65.28"/><polygon class="cls-196" points="1.62 64.97 1.3 64.49 93.43 1.9 93.74 2.38 1.62 64.97"/><polygon class="cls-197" points="1.39 64.66 1.08 64.18 93.2 1.59 93.54 2.07 1.39 64.66"/><polygon class="cls-198" points="1.19 64.35 0.85 63.87 93 1.28 93.32 1.76 1.19 64.35"/><polygon class="cls-199" points="0.96 64.03 0.65 63.55 92.78 0.96 93.09 1.45 0.96 64.03"/><polygon class="cls-200" points="0.77 63.69 0.42 63.24 92.55 0.65 92.89 1.11 0.77 63.69"/><polygon class="cls-201" points="0.54 63.38 0.23 62.9 92.35 0.34 92.67 0.79 0.54 63.38"/><polygon class="cls-202" points="0.31 63.07 0 62.59 92.13 0 92.47 0.48 0.31 63.07"/><polygon class="cls-203" points="0.11 62.76 0.09 62.7 92.21 0.11 92.24 0.17 0.11 62.76"/></g></svg>